<svg id="Layer_1" data-name="Layer 1" xmlns="http://www.w3.org/2000/svg" xmlns:xlink="http://www.w3.org/1999/xlink" viewBox="0 0 1215.84 926.76"><defs><style>.cls-1{fill:url(#linear-gradient);}</style><linearGradient id="linear-gradient" x1="475.98" y1="276.62" x2="1526.02" y2="885.71" gradientUnits="userSpaceOnUse"><stop offset="0" stop-color="#fe924c"/><stop offset="0.97" stop-color="#8a62c2"/></linearGradient></defs><path class="cls-1" d="M1381.36,153.44a1002.25,1002.25,0,0,0-247.48-76.76,3.79,3.79,0,0,0-4,1.88,692.88,692.88,0,0,0-30.81,63.3c-93.46-14-186.44-14-278,0a637.79,637.79,0,0,0-31.31-63.3,3.89,3.89,0,0,0-4-1.88,998.66,998.66,0,0,0-247.48,76.76,3.56,3.56,0,0,0-1.64,1.41C379.11,390.34,335.91,620.06,357.11,846.9a4.12,4.12,0,0,0,1.57,2.84c104,76.38,204.74,122.75,303.61,153.48a3.93,3.93,0,0,0,4.26-1.41,721.61,721.61,0,0,0,62.11-101,3.86,3.86,0,0,0-2.1-5.36,662.64,662.64,0,0,1-94.83-45.21,3.89,3.89,0,0,1-.39-6.46C637.72,839,644.08,834,650.19,829a3.75,3.75,0,0,1,3.92-.53c199,90.86,414.41,90.86,611.05,0a3.75,3.75,0,0,1,4,.47c6.08,5,12.46,10,18.88,14.82a3.88,3.88,0,0,1-.34,6.46,621.88,621.88,0,0,1-94.89,45.15,3.9,3.9,0,0,0-2.07,5.42,808.32,808.32,0,0,0,62.06,101,3.81,3.81,0,0,0,4.26,1.44c99.34-30.73,200.09-77.1,304.07-153.48a3.78,3.78,0,0,0,1.58-2.79c25.34-262.26-42.47-490.07-179.76-692A3.1,3.1,0,0,0,1381.36,153.44Zm-623,555.32c-59.91,0-109.26-55-109.26-122.56s48.41-122.55,109.26-122.55c61.35,0,110.23,55.49,109.26,122.55C867.66,653.74,819.25,708.76,758.37,708.76Zm404,0c-59.9,0-109.26-55-109.26-122.56s48.42-122.55,109.26-122.55c61.35,0,110.23,55.49,109.27,122.55C1271.66,653.74,1223.74,708.76,1162.39,708.76Z" transform="translate(-352.08 -76.62)"/></svg>